<svg width="24" height="24" viewBox="0 0 24 24" fill="none" xmlns="http://www.w3.org/2000/svg">
<path d="M10.4919 3.51509C14.3578 3.48135 17.519 6.58789 17.5527 10.4537C17.5668 12.0596 17.0389 13.5438 16.1399 14.7329L20.1981 18.7206C20.592 19.1077 20.5975 19.7409 20.2104 20.1348C19.8233 20.5287 19.1902 20.5342 18.7963 20.1471L14.7193 16.1406C13.5713 16.9922 12.1528 17.5011 10.6141 17.5146C6.74825 17.5483 3.58701 14.4418 3.55327 10.5759C3.51954 6.71006 6.62608 3.54882 10.4919 3.51509ZM10.5094 5.51501C7.74806 5.53911 5.5291 7.79713 5.5532 10.5585C5.57729 13.3198 7.83532 15.5387 10.5966 15.5146C13.358 15.4905 15.5769 13.2325 15.5528 10.4712C15.5287 7.70987 13.2707 5.49091 10.5094 5.51501Z" fill="#444984" fill-opacity="0.65"/>
</svg>
