<svg width="32" height="32" viewBox="0 0 32 32" fill="none" xmlns="http://www.w3.org/2000/svg">
<path fill-rule="evenodd" clip-rule="evenodd" d="M16.0007 30.6663C7.90047 30.6663 1.33398 24.0998 1.33398 15.9997C1.33398 7.8995 7.90047 1.33301 16.0007 1.33301C24.1008 1.33301 30.6673 7.8995 30.6673 15.9997C30.6673 24.0998 24.1008 30.6663 16.0007 30.6663ZM25.8666 22.8325C27.2121 20.8934 28.0007 18.5386 28.0007 15.9997C28.0007 9.37226 22.6281 3.99967 16.0007 3.99967C9.37323 3.99967 4.00065 9.37226 4.00065 15.9997C4.00065 18.5386 4.78916 20.8934 6.13466 22.8325C7.63525 20.8504 11.1615 19.9997 16.0007 19.9997C20.8398 19.9997 24.366 20.8504 25.8666 22.8325ZM23.9536 24.986C23.5633 23.5828 20.7598 22.6663 16.0007 22.6663C11.2415 22.6663 8.43799 23.5828 8.04774 24.986C10.1651 26.8612 12.9499 27.9997 16.0007 27.9997C19.0514 27.9997 21.8363 26.8612 23.9536 24.986ZM16.0007 19.9997C13.0151 19.9997 10.6673 17.9028 10.6673 13.333C10.6673 10.3407 12.7728 7.99967 16.0007 7.99967C19.2196 7.99967 21.334 10.5618 21.334 13.5997C21.334 17.9725 18.9581 19.9997 16.0007 19.9997ZM13.334 13.333C13.334 16.3587 14.4249 17.333 16.0007 17.333C17.5709 17.333 18.6673 16.3975 18.6673 13.5997C18.6673 11.9336 17.6215 10.6663 16.0007 10.6663C14.3123 10.6663 13.334 11.7541 13.334 13.333Z" fill="#5E5E6D"/>
</svg>
